#N canvas -14 22 1440 830 10;
#X obj 7 -389 comport 2 115200;
#X obj -9 -388 tgl 15 0 empty empty empty 17 7 0 10 -262144 -1 -1 0
1;
#X msg 108 -432 close;
#X msg 110 -410 open 2;
#X text 305 -382 Channel A;
#X text 488 -382 Channel B;
#X text 639 -383 Channel C;
#X text 207 -288 Tone;
#X obj 308 -186 vsl 15 128 0 15 0 0 empty empty empty 0 -9 0 10 -13381
-1 -1 6100 1;
#X text 207 -137 Volume;
#X text 333 -197 Envelope Toggle;
#X floatatom 346 227 5 0 0 0 - - -;
#X floatatom 613 227 5 0 0 0 - - -;
#X obj 309 -259 hsl 128 15 0 96 0 0 empty empty empty -2 -8 0 10 -4034
-1 -1 6100 1;
#X text 169 -328 Enable Tone;
#X text 172 -12 Enable Noise;
#X obj 478 -186 vsl 15 128 0 15 0 0 empty empty empty 0 -9 0 10 -4160
-1 -1 4300 1;
#X floatatom 443 227 5 0 0 0 - - -;
#X floatatom 682 222 5 0 0 0 - - -;
#X obj 479 -259 hsl 128 15 0 96 0 0 empty empty empty -2 -8 0 10 -4032
-1 -1 5500 1;
#X obj 648 -186 vsl 15 128 0 15 0 0 empty empty empty 0 -9 0 10 -260097
-1 -1 0 1;
#X floatatom 541 227 5 0 0 0 - - -;
#X floatatom 754 227 5 0 0 0 - - -;
#X obj 648 -257 hsl 128 15 0 96 0 0 empty empty empty -2 -8 0 10 -257985
-1 -1 12700 1;
#X obj 474 -343 bng 15 250 50 0 empty empty empty 17 7 0 10 -262144
-1 -1;
#X obj 646 -343 bng 15 250 50 0 empty empty empty 17 7 0 10 -262144
-1 -1;
#X obj 307 -2 bng 15 250 50 0 empty empty empty 17 7 0 10 -262144 -1
-1;
#X obj 36 250 + 1;
#X floatatom 85 250 5 0 0 0 - - -;
#X floatatom 52 271 5 0 0 0 - - -;
#X obj 85 272 % 2;
#X obj 477 4 bng 15 250 50 0 empty empty empty 17 7 0 10 -262144 -1
-1;
#X obj 126 250 + 1;
#X obj 126 227 f 1;
#X floatatom 167 250 5 0 0 0 - - -;
#X floatatom 132 271 5 0 0 0 - - -;
#X obj 167 272 % 2;
#X obj 649 0 bng 15 250 50 0 empty empty empty 17 7 0 10 -262144 -1
-1;
#X obj 211 250 + 1;
#X obj 211 227 f 1;
#X floatatom 245 250 5 0 0 0 - - -;
#X floatatom 216 276 5 0 0 0 - - -;
#X obj 250 276 % 2;
#X obj 36 227 f 1;
#X obj 26 295 pack 3 0 0;
#X obj 107 295 pack 3 1 0;
#X obj 185 302 pack 3 2 0;
#X obj 294 243 pack 0 0 0;
#X obj 384 243 pack 0 1 0;
#X obj 484 243 pack 0 2 0;
#X obj 297 326 s tone;
#X obj -134 -415 r tone;
#X obj 582 225 bng 15 250 50 0 empty empty empty 17 7 0 10 -262144
-1 -1;
#X obj 651 222 bng 15 250 50 0 empty empty empty 17 7 0 10 -262144
-1 -1;
#X obj 721 225 bng 15 250 50 0 empty empty empty 17 7 0 10 -262144
-1 -1;
#X obj 582 246 pack 4 0 0;
#X text 305 -382 Channel A;
#X obj 304 -343 bng 15 250 50 0 empty empty empty 17 7 0 10 -262144
-1 -1;
#X obj 651 243 pack 4 1 0;
#X obj 582 331 s amp;
#X obj -175 -404 r amp;
#X obj 25 332 s noiseEna;
#X obj -91 -427 r toneEna;
#X obj -31 -446 r noiseEna;
#X obj 294 222 bng 15 250 50 0 empty empty empty 17 7 0 10 -262144
-1 -1;
#X obj 484 222 bng 15 250 50 0 empty empty empty 17 7 0 10 -262144
-1 -1;
#X obj 384 222 bng 15 250 50 0 empty empty empty 17 7 0 10 -262144
-1 -1;
#X obj 337 -172 bng 15 250 50 0 empty empty empty 17 7 0 10 -262144
-1 -1;
#X obj 354 -134 + 1;
#X obj 354 -154 f 1;
#X floatatom 401 -133 5 0 0 0 - - -;
#X floatatom 368 -114 5 0 0 0 - - -;
#X obj 402 -114 % 2;
#X text 503 -197 Envelope Toggle;
#X obj 507 -172 bng 15 250 50 0 empty empty empty 17 7 0 10 -262144
-1 -1;
#X obj 524 -134 + 1;
#X obj 524 -154 f 1;
#X floatatom 571 -133 5 0 0 0 - - -;
#X floatatom 538 -114 5 0 0 0 - - -;
#X obj 572 -114 % 2;
#X text 683 -197 Envelope Toggle;
#X obj 687 -172 bng 15 250 50 0 empty empty empty 17 7 0 10 -262144
-1 -1;
#X obj 704 -134 + 1;
#X obj 704 -154 f 1;
#X floatatom 761 -133 5 0 0 0 - - -;
#X floatatom 718 -114 5 0 0 0 - - -;
#X obj 762 -114 % 2;
#X obj 337 -94 pack 4 0 16;
#X obj 507 -94 pack 4 0 16;
#X obj 687 -94 pack 2 0 16;
#X obj 28 195 r noiseA;
#X obj 119 195 r noiseB;
#X obj 206 195 r noiseC;
#X obj 294 171 r toneFrA;
#X obj 383 173 r toneFrB;
#X obj 484 175 r toneFrC;
#X obj 306 -237 s toneFrA;
#X obj 476 -236 s toneFrB;
#X obj 645 -236 s toneFrC;
#X obj 307 21 s noiseA;
#X obj 477 29 s noiseB;
#X obj 649 22 s noiseC;
#X obj 305 -321 s tonEnaA;
#X obj 475 -321 s tonEnaB;
#X obj 645 -321 s tonEnaC;
#X obj -229 250 + 1;
#X floatatom -180 250 5 0 0 0 - - -;
#X floatatom -213 271 5 0 0 0 - - -;
#X obj -180 272 % 2;
#X obj -139 250 + 1;
#X obj -139 227 f 1;
#X floatatom -98 244 5 0 0 0 - - -;
#X floatatom -133 271 5 0 0 0 - - -;
#X obj -98 266 % 2;
#X obj -54 250 + 1;
#X obj -54 227 f 1;
#X floatatom -49 276 5 0 0 0 - - -;
#X obj -229 227 f 1;
#X obj -158 295 pack 2 1 0;
#X obj -80 302 pack 2 2 0;
#X obj -245 330 s toneEna;
#X obj -237 195 r tonEnaA;
#X obj -146 190 r tonEnaB;
#X obj -59 195 r tonEnaC;
#X floatatom -20 250 5 0 0 0 - - -;
#X obj -14 271 % 2;
#X floatatom 305 -287 5 0 4097 0 - - -;
#X floatatom 476 -287 5 0 4097 0 - - -;
#X floatatom 645 -287 5 0 4097 0 - - -;
#X obj 310 -41 s volA;
#X obj 480 -40 s volB;
#X obj 651 -38 s volC;
#X obj 583 179 r volA;
#X obj 649 181 r volB;
#X obj 722 179 r volC;
#X obj -239 293 pack 2 0 0;
#X obj 721 246 pack 4 2 0;
#X obj 302 74 hsl 128 15 0 10 0 0 empty empty empty -2 -8 0 10 -262144
-1 -1 8400 1;
#X text 207 74 Mode;
#X obj 309 117 hsl 100 15 0 255 0 0 empty empty empty -2 -8 0 10 -262144
-1 -1 7700 1;
#X text 158 116 Envelope Period;
#X floatatom 843 227 5 0 0 0 - - -;
#X obj 812 225 bng 15 250 50 0 empty empty empty 17 7 0 10 -262144
-1 -1;
#X floatatom 923 227 5 0 1000 0 - - -;
#X obj 892 225 bng 15 250 50 0 empty empty empty 17 7 0 10 -262144
-1 -1;
#X obj 300 96 s mode;
#X obj 811 172 r mode;
#X obj 812 246 pack 6 0 0;
#X obj 891 246 pack 5 0 0;
#X obj 812 331 s envelope;
#X obj 892 329 s envelope;
#X obj -168 -362 r envelope;
#X obj 601 199 int;
#X obj 662 201 int;
#X obj 751 199 int;
#X obj 841 199 int;
#X obj 485 277 print;
#X obj 541 199 int;
#X obj 443 200 int;
#X obj 351 199 int;
#X obj 579 119 hsl 100 15 0 255 0 0 empty empty empty -2 -8 0 10 -262144
-1 -1 700 1;
#X text 428 116 Envelope Period;
#X obj 305 142 s periodCourse;
#X obj 575 141 s periodFine;
#X obj 892 202 r periodCourse;
#X floatatom 1033 227 5 0 1000 0 - - -;
#X obj 1002 225 bng 15 250 50 0 empty empty empty 17 7 0 10 -262144
-1 -1;
#X obj 1002 329 s envelope;
#X obj 1002 202 r periodFine;
#X obj 1001 246 pack 7 0 0;
#X connect 0 0 1 0;
#X connect 1 0 0 0;
#X connect 2 0 0 0;
#X connect 3 0 0 0;
#X connect 8 0 129 0;
#X connect 11 0 47 2;
#X connect 12 0 55 2;
#X connect 13 0 96 0;
#X connect 16 0 130 0;
#X connect 17 0 48 2;
#X connect 18 0 58 2;
#X connect 19 0 97 0;
#X connect 20 0 131 0;
#X connect 21 0 49 2;
#X connect 22 0 136 2;
#X connect 23 0 98 0;
#X connect 24 0 103 0;
#X connect 25 0 104 0;
#X connect 26 0 99 0;
#X connect 27 0 28 0;
#X connect 28 0 27 1;
#X connect 28 0 30 0;
#X connect 30 0 29 0;
#X connect 30 0 44 2;
#X connect 31 0 100 0;
#X connect 32 0 34 0;
#X connect 33 0 32 0;
#X connect 34 0 32 1;
#X connect 34 0 36 0;
#X connect 36 0 35 0;
#X connect 36 0 45 2;
#X connect 37 0 101 0;
#X connect 38 0 40 0;
#X connect 39 0 38 0;
#X connect 40 0 38 1;
#X connect 40 0 42 0;
#X connect 42 0 41 0;
#X connect 42 0 46 2;
#X connect 43 0 27 0;
#X connect 44 0 61 0;
#X connect 45 0 61 0;
#X connect 46 0 61 0;
#X connect 47 0 50 0;
#X connect 48 0 50 0;
#X connect 49 0 50 0;
#X connect 49 0 156 0;
#X connect 51 0 0 0;
#X connect 52 0 55 0;
#X connect 53 0 58 0;
#X connect 54 0 136 0;
#X connect 55 0 59 0;
#X connect 57 0 102 0;
#X connect 58 0 59 0;
#X connect 60 0 0 0;
#X connect 62 0 0 0;
#X connect 63 0 0 0;
#X connect 64 0 47 0;
#X connect 65 0 49 0;
#X connect 66 0 48 0;
#X connect 67 0 69 0;
#X connect 67 0 87 0;
#X connect 68 0 70 0;
#X connect 69 0 68 0;
#X connect 70 0 68 1;
#X connect 70 0 72 0;
#X connect 72 0 71 0;
#X connect 72 0 87 2;
#X connect 74 0 76 0;
#X connect 74 0 88 0;
#X connect 75 0 77 0;
#X connect 76 0 75 0;
#X connect 77 0 75 1;
#X connect 77 0 79 0;
#X connect 79 0 78 0;
#X connect 79 0 88 2;
#X connect 81 0 83 0;
#X connect 81 0 89 0;
#X connect 82 0 84 0;
#X connect 83 0 82 0;
#X connect 84 0 82 1;
#X connect 84 0 86 0;
#X connect 86 0 85 0;
#X connect 86 0 89 2;
#X connect 87 0 129 0;
#X connect 88 0 130 0;
#X connect 89 0 131 0;
#X connect 90 0 44 0;
#X connect 90 0 43 0;
#X connect 91 0 45 0;
#X connect 91 0 33 0;
#X connect 92 0 46 0;
#X connect 92 0 39 0;
#X connect 93 0 64 0;
#X connect 93 0 159 0;
#X connect 94 0 66 0;
#X connect 94 0 158 0;
#X connect 95 0 65 0;
#X connect 95 0 157 0;
#X connect 105 0 106 0;
#X connect 106 0 105 1;
#X connect 106 0 108 0;
#X connect 108 0 107 0;
#X connect 108 0 135 2;
#X connect 109 0 111 0;
#X connect 110 0 109 0;
#X connect 111 0 109 1;
#X connect 111 0 113 0;
#X connect 113 0 112 0;
#X connect 113 0 118 2;
#X connect 114 0 124 0;
#X connect 115 0 114 0;
#X connect 117 0 105 0;
#X connect 118 0 120 0;
#X connect 119 0 120 0;
#X connect 121 0 117 0;
#X connect 121 0 135 0;
#X connect 122 0 110 0;
#X connect 122 0 118 0;
#X connect 123 0 115 0;
#X connect 123 0 119 0;
#X connect 124 0 125 0;
#X connect 124 0 114 1;
#X connect 125 0 119 2;
#X connect 125 0 116 0;
#X connect 126 0 13 0;
#X connect 127 0 19 0;
#X connect 128 0 23 0;
#X connect 132 0 152 0;
#X connect 132 0 52 0;
#X connect 133 0 53 0;
#X connect 133 0 153 0;
#X connect 134 0 54 0;
#X connect 134 0 154 0;
#X connect 135 0 120 0;
#X connect 136 0 59 0;
#X connect 137 0 145 0;
#X connect 139 0 162 0;
#X connect 141 0 147 2;
#X connect 142 0 147 0;
#X connect 143 0 148 2;
#X connect 144 0 148 0;
#X connect 146 0 142 0;
#X connect 146 0 155 0;
#X connect 147 0 149 0;
#X connect 148 0 150 0;
#X connect 151 0 0 0;
#X connect 152 0 12 0;
#X connect 153 0 18 0;
#X connect 154 0 22 0;
#X connect 155 0 141 0;
#X connect 157 0 21 0;
#X connect 158 0 17 0;
#X connect 159 0 11 0;
#X connect 160 0 163 0;
#X connect 164 0 144 0;
#X connect 164 0 143 0;
#X connect 165 0 169 2;
#X connect 166 0 169 0;
#X connect 168 0 166 0;
#X connect 168 0 165 0;
#X connect 169 0 167 0;
